<svg width="12" height="12" viewBox="0 0 12 12" fill="none" xmlns="http://www.w3.org/2000/svg">
<path d="M6.02504 0.75C3.93798 0.75 2.25 2.43798 2.25 4.52504C2.25 6.77388 4.63367 9.87481 5.61518 11.0559C5.83089 11.3147 6.22458 11.3147 6.44029 11.0559C7.41641 9.87481 9.80008 6.77388 9.80008 4.52504C9.80008 2.43798 8.1121 0.75 6.02504 0.75ZM6.02504 5.87327C5.28082 5.87327 4.67681 5.26926 4.67681 4.52504C4.67681 3.78082 5.28082 3.17681 6.02504 3.17681C6.76926 3.17681 7.37327 3.78082 7.37327 4.52504C7.37327 5.26926 6.76926 5.87327 6.02504 5.87327Z" fill="#111111"/>
</svg>
