<svg width="56" height="32" viewBox="0 0 56 32" fill="none" xmlns="http://www.w3.org/2000/svg">
<g clip-path="url(#clip0_4131_3548)">
<path d="M3.87309 3.29141V31.6123H0.492188V0.307129H0.919948C1.42753 0.348145 1.92304 0.482771 2.38124 0.704151C3.12385 1.05353 3.87309 1.87007 3.87309 3.29141ZM11.5409 5.81383V15.975C11.5409 18.6747 10.1141 20.1318 8.75913 20.8067C7.90083 21.2193 6.96565 21.4492 6.01322 21.4817V20.6294H6.08363C6.15537 20.6294 6.2271 20.5936 6.33338 20.5936C6.59551 20.5538 6.8489 20.4696 7.08262 20.3448C7.614 20.0603 8.11749 19.6342 8.11749 18.4921V3.29141C8.11749 2.29621 7.71895 1.83566 7.29651 1.54981C6.92198 1.34014 6.51 1.20528 6.08363 1.15279H6.01322V0.307129C6.04909 0.342861 7.36824 0.342861 8.75913 1.0178C10.1141 1.69274 11.5409 3.14849 11.5409 5.81383Z" fill="#CDD42A"/>
<path d="M25.9282 1.05346C25.1229 0.6345 24.2326 0.403261 23.3244 0.377197C22.338 0.414335 21.3685 0.644103 20.4709 1.05346C18.9738 1.7284 17.2973 3.18415 16.8336 5.88522L13.2322 26.1717C12.7686 28.8715 13.9097 30.3286 15.1571 31.0035C15.9748 31.4236 16.8771 31.6543 17.7968 31.6784C18.7831 31.6414 19.7525 31.4121 20.6503 31.0035C22.1474 30.3286 23.7881 28.8715 24.2876 26.1717L27.8584 5.88522C28.3526 3.18415 27.1756 1.7284 25.9282 1.05346ZM23.3816 21.242C23.24 22.9602 22.7052 24.6231 21.8182 26.1033C20.9311 27.5834 19.7154 28.8414 18.2644 29.7807L18.3906 29.0607C19.7686 27.7343 20.6898 26.0075 21.0225 24.1276C21.3551 22.2477 21.0821 20.3111 20.2424 18.5952C20.1129 18.3284 19.9692 18.0687 19.812 17.8171C19.7522 17.7178 19.6898 17.6212 19.626 17.5272C19.6212 17.5209 19.6167 17.5143 19.6128 17.5074C18.5118 15.73 17.9307 13.6817 17.9349 11.5931C17.9349 11.2808 17.9478 10.972 17.9735 10.6667C18.1161 8.9334 18.659 7.25641 19.5598 5.76671C20.4606 4.27702 21.6949 3.01496 23.1664 2.0791L23.0441 2.77124C21.6201 4.10678 20.6673 5.86496 20.3279 7.78379C19.9884 9.70261 20.2804 11.6793 21.1604 13.4194C21.272 13.643 21.3955 13.8627 21.5271 14.0745C21.5948 14.187 21.6679 14.2981 21.7409 14.4066C21.744 14.4103 21.7467 14.4143 21.7489 14.4186C22.8445 16.1936 23.4231 18.2372 23.4201 20.321C23.4201 20.6297 23.4073 20.9368 23.3816 21.242Z" fill="#CDD42A"/>
<path d="M34.4102 3.32693V28.7364C34.4102 29.6945 34.8087 30.1564 35.267 30.4409C35.614 30.68 36.0224 30.8155 36.444 30.8313H36.626C36.7105 30.8326 36.7948 30.821 36.8758 30.7969C37.1318 30.7493 37.3827 30.6775 37.625 30.5825C38.1564 30.2993 38.6586 29.8374 38.6586 28.7364C38.6586 27.315 39.4437 26.4972 40.157 26.1425C40.6083 25.904 41.1079 25.7705 41.6183 25.7521H42.0461V26.1782C42.0461 28.878 40.6552 30.335 39.2657 31.01C38.425 31.4532 37.4882 31.6849 36.537 31.6849C35.5858 31.6849 34.6491 31.4532 33.8084 31.01C32.4175 30.335 31.0266 28.878 31.0266 26.1782V5.88508C31.0266 3.18401 32.4175 1.72826 33.8084 1.05332C34.6488 0.609179 35.5857 0.376953 36.537 0.376953C37.4884 0.376953 38.4252 0.609179 39.2657 1.05332C40.6552 1.72826 42.0461 3.18401 42.0461 5.88508V6.31122H41.6183C41.1117 6.29498 40.614 6.17374 40.157 5.95522C39.4437 5.60055 38.6586 4.74827 38.6586 3.32693C38.6586 2.36746 38.2667 1.90559 37.803 1.62106C37.4556 1.38273 37.0475 1.24737 36.626 1.23066H36.448C36.3634 1.22928 36.2791 1.24134 36.1983 1.26639C35.9373 1.31097 35.6846 1.39486 35.449 1.51519C34.9097 1.76399 34.4102 2.22453 34.4102 3.32693Z" fill="#CDD42A"/>
<path d="M55.8886 5.88522V26.1717C55.8886 28.8715 54.4618 30.3286 53.1068 31.0035C52.2599 31.4468 51.3175 31.6784 50.3609 31.6784C49.4042 31.6784 48.4619 31.4468 47.615 31.0035C46.26 30.3286 44.8332 28.8715 44.8332 26.1717V16.0463C44.8332 13.3453 46.26 11.8895 47.615 11.2146C48.473 10.8012 49.4083 10.5709 50.3609 10.5383V11.3919H50.2891C50.2044 11.3885 50.1197 11.4006 50.0394 11.4277C49.779 11.4522 49.5255 11.5245 49.2915 11.6407C48.7601 11.9239 48.2207 12.3858 48.2207 13.4935V28.7299C48.2207 29.688 48.6126 30.1499 49.0763 30.4344C49.436 30.675 49.8562 30.8102 50.2891 30.8248H50.4326C50.5168 30.8281 50.6009 30.8165 50.681 30.7904C50.9382 30.7477 51.1896 30.6758 51.4303 30.576C51.9617 30.2928 52.501 29.831 52.501 28.7299V3.32708C52.501 2.36761 52.1025 1.90574 51.6442 1.6212C51.2846 1.38134 50.865 1.24614 50.4326 1.2308H50.2825C50.1978 1.22739 50.1131 1.23951 50.0327 1.26653C49.7708 1.30561 49.5178 1.3898 49.2848 1.51533C48.7535 1.76413 48.2141 2.22468 48.2141 3.32708C48.2141 4.74842 47.4649 5.60069 46.7169 5.95536C46.2599 6.17366 45.7622 6.29489 45.2556 6.31136H44.8279V5.88522C44.8279 3.18415 46.2546 1.7284 47.6097 1.05346C48.4563 0.609305 49.3987 0.377197 50.3556 0.377197C51.3124 0.377197 52.2548 0.609305 53.1015 1.05346C54.4552 1.7284 55.8886 3.18415 55.8886 5.88522Z" fill="#CDD42A"/>
</g>
<defs>
<clipPath id="clip0_4131_3548">
<rect width="56" height="32" fill="white"/>
</clipPath>
</defs>
</svg>
