<svg width="522" height="297" viewBox="0 0 522 297" fill="none" xmlns="http://www.w3.org/2000/svg">
<g clip-path="url(#clip0_4002_1579)">
<path d="M18.456 4.46497L18.4583 4.46607C25.3521 7.72253 32.3286 15.3389 32.3286 28.6411V295.493H1.0705V0.745605H4.82847C9.56198 1.1309 14.1828 2.39205 18.456 4.46497ZM78.3642 193.608C70.4115 197.446 61.7533 199.601 52.9317 199.939V192.41H53.3431C53.6767 192.41 54.0088 192.335 54.3376 192.26C54.3747 192.252 54.4118 192.244 54.4488 192.235C54.8225 192.152 55.2185 192.073 55.689 192.073H55.708L55.7268 192.07C58.2172 191.69 60.6245 190.887 62.8451 189.697L62.8454 189.697C65.3573 188.346 67.8279 186.647 69.6667 183.912C71.5067 181.175 72.6978 177.426 72.6978 172.002V28.6411C72.6978 23.9141 71.7549 20.4385 70.2989 17.7989C68.8429 15.159 66.8831 13.3721 64.8765 12.0088L64.8678 12.0029L64.8586 11.9977C61.3122 10.0043 57.411 8.72216 53.3737 8.2231L53.3584 8.22121H53.3431H52.9317V0.817756C53.0392 0.83417 53.1707 0.850556 53.3229 0.867702C53.5514 0.893447 53.8363 0.921942 54.1708 0.955378C54.4181 0.980106 54.6924 1.00754 54.9909 1.03855C56.401 1.18508 58.3834 1.41489 60.7621 1.8324C65.5198 2.66753 71.8593 4.25315 78.3642 7.42223C91.0208 13.7523 104.355 27.4026 104.355 52.4307V148.263C104.355 173.616 91.0198 187.279 78.3642 193.608Z" stroke="#111111" stroke-width="0.5"/>
<path d="M188.59 7.76298L188.591 7.76252C196.99 3.91657 206.061 1.75736 215.292 1.40736C223.781 1.65325 232.103 3.82397 239.631 7.75584C245.452 10.9185 251.104 15.9072 254.725 23.2645C258.346 30.6213 259.947 40.3665 257.634 53.06L257.634 53.0616L224.092 244.387C219.417 269.757 204.068 283.437 190.068 289.774L190.067 289.774C181.667 293.613 172.595 295.768 163.366 296.117C154.768 295.889 146.333 293.723 138.688 289.78C132.869 286.618 127.302 281.627 123.729 274.269C120.156 266.91 118.567 257.163 120.737 244.474L154.566 53.1483L154.567 53.1469C158.905 27.7693 174.587 14.1011 188.59 7.76298ZM167.513 278.426L167.415 278.991L167.896 278.678C181.558 269.799 193.004 257.907 201.356 243.914C209.708 229.922 214.744 214.201 216.076 197.96C216.318 195.074 216.439 192.171 216.439 189.252C216.467 169.556 211.021 150.24 200.709 133.462C200.683 133.412 200.652 133.366 200.617 133.323C199.934 132.304 199.253 131.263 198.622 130.211L198.62 130.208C197.388 128.217 196.231 126.152 195.187 124.05L195.186 124.049C186.945 107.686 184.21 89.0978 187.389 71.054C190.568 53.0102 199.492 36.4769 212.829 23.9181L212.89 23.8612L212.904 23.7794L214.052 17.2516L214.151 16.6915L213.671 16.9976C199.817 25.8446 188.195 37.7754 179.714 51.8581C171.232 65.9408 166.12 81.794 164.778 98.1795C164.536 101.065 164.415 103.984 164.415 106.937C164.375 126.68 169.846 146.042 180.211 162.844C180.252 162.916 180.297 162.984 180.347 163.05C180.943 163.931 181.525 164.836 182.083 165.766L182.085 165.769C183.557 168.135 184.902 170.577 186.115 173.085L186.116 173.086C193.98 189.221 196.537 207.432 193.421 225.11C190.306 242.787 181.677 259.026 168.771 271.499L168.713 271.556L168.699 271.636L167.513 278.426Z" stroke="#111111" stroke-width="0.5"/>
<path d="M390.902 240.725V244.494C390.902 269.851 377.901 283.511 364.925 289.839L364.917 289.843C357.056 294.004 348.297 296.18 339.403 296.18C330.509 296.18 321.75 294.004 313.889 289.843L313.882 289.839C300.893 283.511 287.892 269.851 287.892 244.494V53.1048C287.892 27.7356 300.893 14.088 313.882 7.75997L313.882 7.7601L313.889 7.75606C321.748 3.58642 330.508 1.40625 339.403 1.40625C348.299 1.40625 357.059 3.58642 364.917 7.75606L364.917 7.75619L364.925 7.75992C377.901 14.088 390.902 27.7356 390.902 53.1048V56.8738H387.138C382.416 56.7213 377.777 55.5865 373.517 53.5417C366.893 50.234 359.582 42.2777 359.582 28.9782C359.582 24.4191 358.654 21.0231 357.164 18.4226C355.674 15.824 353.633 14.0373 351.432 12.6802C348.131 10.4079 344.254 9.11734 340.249 8.95793L340.249 8.95773H340.239H338.569C337.754 8.94466 336.942 9.06055 336.163 9.3011C333.694 9.72624 331.303 10.5238 329.074 11.6665C326.515 12.8521 324.035 14.5497 322.197 17.276C320.357 20.0046 319.175 23.7412 319.175 28.9782V268.621C319.175 273.175 320.119 276.568 321.618 279.166C323.117 281.763 325.161 283.549 327.336 284.906C330.634 287.186 334.514 288.478 338.52 288.629H338.53L340.236 288.629C340.236 288.629 340.237 288.629 340.238 288.629C341.052 288.641 341.863 288.529 342.644 288.298C345.06 287.846 347.428 287.165 349.715 286.265L349.728 286.26L349.741 286.253C352.258 284.906 354.723 283.125 356.558 280.357C358.393 277.588 359.582 273.853 359.582 268.621C359.582 255.324 366.891 247.69 373.519 244.381L373.525 244.378C377.728 242.148 382.383 240.899 387.138 240.725H390.902Z" stroke="#111111" stroke-width="0.5"/>
<path d="M494.937 289.778L494.933 289.78C487.014 293.942 478.202 296.117 469.256 296.117C460.31 296.117 451.498 293.942 443.579 289.78L443.574 289.778C430.918 283.449 417.582 269.786 417.582 244.432V148.937C417.582 123.571 430.917 109.922 443.573 103.592C451.523 99.7464 460.183 97.5871 469.006 97.2486V104.79H468.587C467.772 104.758 466.958 104.873 466.184 105.131C463.718 105.368 461.316 106.057 459.099 107.163L459.099 107.163L459.093 107.166C456.579 108.511 454.026 110.291 452.104 113.065C450.181 115.842 448.903 119.594 448.903 124.86V268.559C448.903 273.112 449.83 276.504 451.321 279.103C452.811 281.701 454.852 283.488 457.054 284.845C460.47 287.138 464.461 288.427 468.574 288.567H468.582H469.925C470.737 288.598 471.549 288.486 472.323 288.236C474.751 287.829 477.124 287.147 479.397 286.201L479.408 286.196L479.419 286.191C481.933 284.845 484.485 283.066 486.407 280.3C488.331 277.531 489.609 273.794 489.609 268.559V28.9783C489.609 24.4184 488.665 21.0223 487.166 18.422C485.667 15.8232 483.622 14.0366 481.446 12.6797C478.031 10.3931 474.046 9.10421 469.939 8.95792L469.939 8.95776H469.93H468.525C467.707 8.9254 466.891 9.04164 466.115 9.30079C463.636 9.6747 461.241 10.4756 459.035 11.668C456.518 12.8524 453.965 14.5482 452.043 17.2717C450.118 19.9995 448.84 23.7372 448.84 28.9783C448.84 42.2837 441.861 50.2357 434.919 53.5406L434.919 53.5409C430.658 55.5842 426.019 56.7191 421.296 56.8738H417.532V53.1048C417.532 27.7381 430.868 14.0882 443.524 7.75884L443.524 7.75889L443.529 7.75644C451.446 3.5864 460.259 1.40723 469.206 1.40723C478.153 1.40723 486.966 3.5864 494.883 7.75648L494.887 7.7588C507.531 14.0884 520.929 27.7386 520.929 53.1048V244.432C520.929 269.786 507.593 283.449 494.937 289.778Z" stroke="#111111" stroke-width="0.5"/>
</g>
<defs>
<clipPath id="clip0_4002_1579">
<rect width="522" height="297" fill="white"/>
</clipPath>
</defs>
</svg>
