<svg width="522" height="297" viewBox="0 0 522 297" fill="none" xmlns="http://www.w3.org/2000/svg">
<g clip-path="url(#clip0_2010_2459)">
<path d="M32.5786 28.6411V295.743H0.820496V0.495605H4.83862C9.60652 0.882437 14.261 2.15213 18.5651 4.24002C25.5407 7.53511 32.5786 15.2361 32.5786 28.6411ZM104.605 52.4307V148.263C104.605 173.725 91.2032 187.467 78.475 193.832C70.4127 197.723 61.6282 199.891 52.6817 200.198V192.16H53.3431C54.0169 192.16 54.6908 191.823 55.689 191.823C58.1514 191.447 60.5315 190.653 62.727 189.476C67.7184 186.793 72.4478 182.774 72.4478 172.002V28.6411C72.4478 19.2551 68.7043 14.9116 64.736 12.2156C61.218 10.2382 57.3481 8.96628 53.3431 8.47121H52.6817V0.495605C53.0186 0.832603 65.4099 0.832607 78.475 7.19811C91.2032 13.5636 104.605 27.2931 104.605 52.4307Z" fill="#CDD42A"/>
<path d="M239.749 7.53522C232.184 3.58392 223.821 1.40304 215.291 1.15723C206.025 1.50748 196.918 3.67448 188.487 7.53522C174.423 13.9007 158.675 27.6303 154.32 53.1048L120.491 244.432C116.136 269.894 126.855 283.636 138.572 290.002C146.253 293.963 154.728 296.139 163.367 296.367C172.632 296.018 181.738 293.855 190.171 290.002C204.235 283.636 219.646 269.894 224.338 244.432L257.88 53.1048C262.522 27.6303 251.466 13.9007 239.749 7.53522ZM215.827 197.939C214.498 214.143 209.474 229.826 201.142 243.786C192.809 257.746 181.39 269.61 167.76 278.469L168.945 271.679C181.889 259.169 190.543 242.883 193.668 225.153C196.792 207.423 194.227 189.159 186.34 172.976C185.124 170.46 183.774 168.01 182.297 165.637C181.736 164.701 181.149 163.79 180.55 162.904C180.504 162.844 180.463 162.782 180.425 162.716C170.084 145.953 164.626 126.635 164.665 106.937C164.665 103.991 164.786 101.079 165.027 98.2C166.366 81.8529 171.466 66.0368 179.928 51.9871C188.39 37.9374 199.984 26.0346 213.806 17.2083L212.658 23.7361C199.281 36.3318 190.331 52.9137 187.143 71.0106C183.954 89.1075 186.697 107.751 194.963 124.161C196.011 126.271 197.172 128.343 198.407 130.34C199.044 131.401 199.73 132.449 200.416 133.472C200.445 133.507 200.471 133.545 200.491 133.585C210.782 150.326 216.217 169.599 216.189 189.252C216.189 192.164 216.069 195.06 215.827 197.939Z" fill="#CDD42A"/>
<path d="M319.425 28.9782V268.621C319.425 277.657 323.169 282.013 327.474 284.697C330.733 286.952 334.569 288.23 338.53 288.379H340.239C341.033 288.391 341.824 288.281 342.585 288.054C344.99 287.605 347.347 286.928 349.623 286.032C354.615 283.361 359.332 279.005 359.332 268.621C359.332 255.216 366.706 247.502 373.408 244.157C377.646 241.908 382.339 240.649 387.134 240.475H391.152V244.494C391.152 269.956 378.087 283.698 365.034 290.064C357.137 294.244 348.338 296.43 339.403 296.43C330.468 296.43 321.669 294.244 313.772 290.064C300.707 283.698 287.642 269.956 287.642 244.494V53.1048C287.642 27.6303 300.707 13.9007 313.772 7.53522C321.667 3.34643 330.467 1.15625 339.403 1.15625C348.34 1.15625 357.14 3.34643 365.034 7.53522C378.087 13.9007 391.152 27.6303 391.152 53.1048V57.1238H387.134C382.375 56.9707 377.7 55.8272 373.408 53.7663C366.706 50.4213 359.332 42.3833 359.332 28.9782C359.332 19.9292 355.65 15.5732 351.295 12.8897C348.032 10.642 344.199 9.36535 340.239 9.20773H338.567C337.772 9.19477 336.98 9.30852 336.221 9.54473C333.77 9.96516 331.397 10.7564 329.183 11.8912C324.117 14.2377 319.425 18.5813 319.425 28.9782Z" fill="#CDD42A"/>
<path d="M521.179 53.1048V244.432C521.179 269.894 507.777 283.636 495.049 290.002C487.094 294.182 478.242 296.367 469.256 296.367C460.269 296.367 451.418 294.182 443.463 290.002C430.734 283.636 417.332 269.894 417.332 244.432V148.937C417.332 123.462 430.734 109.733 443.463 103.367C451.523 99.4688 460.308 97.2965 469.256 96.9894V105.04H468.582C467.786 105.008 466.991 105.122 466.236 105.377C463.791 105.609 461.409 106.29 459.211 107.386C454.219 110.057 449.153 114.413 449.153 124.86V268.559C449.153 277.595 452.834 281.951 457.189 284.635C460.568 286.903 464.515 288.179 468.582 288.317H469.93C470.721 288.347 471.511 288.238 472.263 287.992C474.679 287.589 477.04 286.911 479.301 285.97C484.293 283.299 489.359 278.943 489.359 268.559V28.9783C489.359 19.9293 485.615 15.5733 481.31 12.8898C477.933 10.6276 473.992 9.35245 469.93 9.20776H468.52C467.724 9.17565 466.928 9.28987 466.174 9.54475C463.713 9.9133 461.336 10.7073 459.148 11.8913C454.157 14.2378 449.09 18.5813 449.09 28.9783C449.09 42.3833 442.052 50.4213 435.027 53.7663C430.734 55.8251 426.059 56.9685 421.3 57.1238H417.282V53.1048C417.282 27.6303 430.684 13.9008 443.413 7.53525C451.365 3.34629 460.218 1.15723 469.206 1.15723C478.194 1.15723 487.047 3.34629 494.999 7.53525C507.715 13.9008 521.179 27.6303 521.179 53.1048Z" fill="#CDD42A"/>
</g>
<defs>
<clipPath id="clip0_2010_2459">
<rect width="522" height="297" fill="white"/>
</clipPath>
</defs>
</svg>
