<svg width="16" height="16" viewBox="0 0 16 16" fill="none" xmlns="http://www.w3.org/2000/svg">
<path fill-rule="evenodd" clip-rule="evenodd" d="M1 3H13C14.1046 3 15 3.89543 15 5V12.6923L9.83072 12.6923L8.26381 14.6509C8.18375 14.751 8.03153 14.751 7.95147 14.6509L6.38456 12.6923H3C1.89543 12.6923 1 11.7969 1 10.6923V3ZM6.38462 7.84615C6.38462 8.14354 6.14354 8.38462 5.84615 8.38462C5.54877 8.38462 5.30769 8.14354 5.30769 7.84615C5.30769 7.54877 5.54877 7.30769 5.84615 7.30769C6.14354 7.30769 6.38462 7.54877 6.38462 7.84615ZM8.00008 8.38469C8.29746 8.38469 8.53854 8.14361 8.53854 7.84623C8.53854 7.54885 8.29746 7.30777 8.00008 7.30777C7.70269 7.30777 7.46161 7.54885 7.46161 7.84623C7.46161 8.14361 7.70269 8.38469 8.00008 8.38469ZM10.6924 7.84623C10.6924 8.14361 10.4513 8.38469 10.1539 8.38469C9.85654 8.38469 9.61546 8.14361 9.61546 7.84623C9.61546 7.54885 9.85654 7.30777 10.1539 7.30777C10.4513 7.30777 10.6924 7.54885 10.6924 7.84623Z" fill="#111111"/>
</svg>
