<svg width="72" height="72" viewBox="0 0 72 72" fill="none" xmlns="http://www.w3.org/2000/svg">
<path fill-rule="evenodd" clip-rule="evenodd" d="M47.9015 15.6059C40.3926 11.2707 30.791 13.8434 26.4557 21.3523L18.6061 34.9484C14.2708 42.4572 16.8435 52.0588 24.3524 56.3941C31.8613 60.7293 41.4629 58.1566 45.7981 50.6477L53.6478 37.0516C57.9831 29.5428 55.4103 19.9412 47.9015 15.6059ZM30.6261 50.1065C32.8 48.9117 34.6627 47.2345 36.0711 45.2038C36.3221 44.8425 36.5578 44.471 36.7745 44.0825C38.2723 41.4987 39.0109 38.5431 38.9079 35.5464C38.91 35.5401 38.906 35.5259 38.906 35.5259C38.8922 35.3373 38.8827 35.1466 38.8776 34.9585C38.8693 34.6029 38.8719 34.2416 38.8932 33.882C39.0359 31.0854 40.0857 28.4209 41.8861 26.2854C43.6866 24.15 46.1412 22.658 48.8843 22.0319L49.5342 21.2605C47.0172 21.3558 44.5638 22.0282 42.3658 23.2251C40.1679 24.422 38.285 26.1109 36.8645 28.1598C36.6135 28.5211 36.376 28.8931 36.1523 29.2805C34.6513 31.8702 33.9127 34.8331 34.0196 37.8365C34.0191 37.848 34.02 37.8596 34.0224 37.8709C34.0341 38.0344 34.0433 38.1995 34.0489 38.3655C34.0645 38.7916 34.0584 39.2176 34.0307 39.6435C33.8546 42.3815 32.8095 44.9831 31.0449 47.0755C29.2803 49.168 26.8869 50.6439 24.2075 51.292L23.5312 52.096C26.0251 51.9819 28.4522 51.3013 30.6261 50.1065Z" fill="#CDD42A"/>
</svg>
