<svg width="16" height="16" viewBox="0 0 16 16" fill="none" xmlns="http://www.w3.org/2000/svg">
<g clip-path="url(#clip0_4128_3481)">
<path d="M13.2958 8.06019C13.3208 7.83513 13.3333 7.64341 13.3333 7.48504C13.3333 6.66816 13.1958 6.66399 12.6667 6.66399H9.52083C9.825 6.16386 10 5.64706 10 5.12192C10 3.54234 7.6125 2.77131 7.6125 1.4543C7.6125 0.966674 7.825 0.56657 8 -0.000244141C6.89583 0.291498 6.025 1.39595 6.025 2.56709C6.025 4.58012 8.37083 4.59679 8.37083 6.10134C8.37083 6.28889 8.3125 6.4556 8.28333 6.66399H5.95417C5.9875 6.53896 6.00833 6.40559 6.00833 6.27639C6.00833 5.32614 4.37917 4.86352 4.37917 4.07582C4.37917 3.78407 4.42083 3.54235 4.5125 3.20059C3.975 3.41314 3.33333 4.03414 3.33333 4.73432C3.33333 5.84711 4.6625 5.95547 4.86667 6.66399H0.666667C0.1375 6.66399 0 6.66816 0 7.48504C0 8.30192 0.320833 10.0399 1.17917 12.1112C2.0375 14.1826 3.02917 15.0954 3.72917 15.7038L3.73333 15.6955C3.94583 15.8872 4.225 15.9998 4.53333 15.9998H8.8C9.10833 15.9998 9.3875 15.8872 9.6 15.6955L9.60417 15.7038C9.97917 15.3788 10.4375 14.962 10.9125 14.3327C11.1083 14.416 11.3208 14.4869 11.5542 14.541C11.9042 14.6244 12.2542 14.6661 12.5875 14.6661C13.5875 14.6661 14.4875 14.2826 15.1208 13.5908C15.6792 12.9823 16 12.1571 16 11.3319C16 9.71062 14.8333 8.3561 13.2958 8.06019ZM12.5875 13.3449C12.2292 13.3449 11.9375 13.2949 11.6667 13.1699C11.8333 12.8364 11.9958 12.5072 12.1542 12.1237C12.575 11.1068 12.8667 10.1649 13.0542 9.38137C13.9708 9.56058 14.6667 10.3733 14.6667 11.3444C14.6667 12.2905 13.95 13.3449 12.5875 13.3449Z" fill="#111111"/>
</g>
<defs>
<clipPath id="clip0_4128_3481">
<rect width="16" height="16" fill="white"/>
</clipPath>
</defs>
</svg>
