<svg width="72" height="72" viewBox="0 0 72 72" fill="none" xmlns="http://www.w3.org/2000/svg">
<path fill-rule="evenodd" clip-rule="evenodd" d="M47.9013 15.6059C40.3925 11.2707 30.7909 13.8434 26.4556 21.3523L18.6059 34.9484C14.2707 42.4572 16.8434 52.0588 24.3523 56.3941C31.8612 60.7293 41.4628 58.1566 45.798 50.6477L53.6477 37.0516C57.983 29.5428 55.4102 19.9412 47.9013 15.6059ZM30.626 50.1065C32.7999 48.9117 34.6626 47.2345 36.071 45.2038C36.3219 44.8425 36.5577 44.471 36.7744 44.0825C38.2721 41.4987 39.0108 38.5431 38.9077 35.5464C38.9098 35.5401 38.9059 35.5259 38.9059 35.5259C38.8921 35.3373 38.8825 35.1466 38.8775 34.9585C38.8692 34.6029 38.8718 34.2416 38.893 33.882C39.0357 31.0854 40.0855 28.4209 41.886 26.2854C43.6864 24.15 46.1411 22.658 48.8842 22.0319L49.5341 21.2605C47.017 21.3558 44.5636 22.0282 42.3657 23.2251C40.1678 24.422 38.2849 26.1109 36.8643 28.1598C36.6134 28.5211 36.3759 28.8931 36.1522 29.2805C34.6512 31.8702 33.9126 34.8331 34.0195 37.8365C34.019 37.848 34.0199 37.8596 34.0223 37.8709C34.034 38.0344 34.0432 38.1995 34.0488 38.3655C34.0644 38.7916 34.0583 39.2176 34.0306 39.6435C33.8545 42.3815 32.8093 44.9831 31.0448 47.0755C29.2802 49.168 26.8868 50.6439 24.2074 51.292L23.5311 52.096C26.025 51.9819 28.4521 51.3013 30.626 50.1065Z" fill="#F6F7F2"/>
</svg>
