<svg width="16" height="16" viewBox="0 0 16 16" fill="none" xmlns="http://www.w3.org/2000/svg">
<path d="M2 12.1998C2 13.2198 2.78 13.9998 3.8 13.9998H12.2C13.22 13.9998 14 13.2198 14 12.1998V7.39976H2V12.1998ZM12.2 3.19976H11V2.59976C11 2.23976 10.76 1.99976 10.4 1.99976C10.04 1.99976 9.8 2.23976 9.8 2.59976V3.19976H6.2V2.59976C6.2 2.23976 5.96 1.99976 5.6 1.99976C5.24 1.99976 5 2.23976 5 2.59976V3.19976H3.8C2.78 3.19976 2 3.97976 2 4.99976V6.19976H14V4.99976C14 3.97976 13.22 3.19976 12.2 3.19976Z" fill="#111111"/>
</svg>
