<svg width="16" height="16" viewBox="0 0 16 16" fill="none" xmlns="http://www.w3.org/2000/svg">
<path d="M2 6.27297C2 5.75869 2.08856 5.19765 2.26568 4.73011C2.39852 4.30934 2.48708 3.88856 2.4428 3.46778C2.4428 3.18726 2.61993 3.00024 2.88561 3.00024C3.15129 3.00024 3.32841 3.18726 3.32841 3.46778C3.32841 3.98206 3.23985 4.5431 3.06273 5.01063C2.92989 5.38466 2.84133 5.80544 2.84133 6.27297C2.84133 6.55349 2.66421 6.7405 2.39852 6.7405C2.13284 6.7405 2 6.55349 2 6.27297ZM4.30258 5.33791C4.56827 5.33791 4.74539 5.15089 4.74539 4.87037C4.74539 4.68336 4.78967 4.49635 4.83395 4.30934C4.96679 4.07557 5.01107 3.7483 5.01107 3.46778C5.01107 3.18726 4.83395 3.00024 4.56827 3.00024C4.30258 3.00024 4.12546 3.18726 4.12546 3.46778C4.12546 3.65479 4.08118 3.8418 4.0369 4.02882C3.90406 4.26258 3.85978 4.58985 3.85978 4.87037C3.85978 5.15089 4.08118 5.33791 4.30258 5.33791ZM13.0701 6.27297C13.0701 6.55349 13.2472 6.7405 13.5129 6.7405C13.7786 6.7405 13.9557 6.55349 13.9557 6.27297C13.9557 5.75869 13.8672 5.19765 13.69 4.73011C13.5572 4.35609 13.4686 3.93531 13.4686 3.46778C13.4686 3.18726 13.2915 3.00024 13.0258 3.00024C12.7601 3.00024 12.583 3.18726 12.583 3.46778C12.583 3.98206 12.6716 4.5431 12.8487 5.01063C13.0258 5.43141 13.1144 5.85219 13.0701 6.27297ZM11.2103 4.87037C11.2103 5.15089 11.3875 5.33791 11.6531 5.33791C11.9188 5.33791 12.0959 5.15089 12.0959 4.87037C12.0959 4.58985 12.0517 4.26258 11.9631 4.02882C11.9188 3.8418 11.8745 3.65479 11.8745 3.46778C11.8745 3.18726 11.6974 3.00024 11.4317 3.00024C11.1661 3.00024 10.9889 3.18726 10.9889 3.46778C10.9889 3.7483 11.0332 4.07557 11.1218 4.30934C11.1661 4.49635 11.2103 4.68336 11.2103 4.87037ZM2.66421 10.9483H13.2915C13.2915 8.1431 11.3432 5.80544 8.68635 5.38466C8.99631 4.96388 8.86347 4.40284 8.46494 4.07557C8.06642 3.7483 7.53506 3.93531 7.22509 4.35609C7.00369 4.68336 7.00369 5.10414 7.22509 5.43141C4.61255 5.80544 2.66421 8.1431 2.66421 10.9483ZM2.48708 12.6782C2.70849 13.0522 3.15129 13.286 3.5941 13.286H12.4059C12.8487 13.286 13.2472 13.0522 13.5129 12.6782L14 11.8834H2L2.48708 12.6782Z" fill="#111111"/>
</svg>
