<svg width="16" height="16" viewBox="0 0 16 16" fill="none" xmlns="http://www.w3.org/2000/svg">
<path d="M14.5974 5.42822C14.4678 6.24645 13.6912 6.90976 12.8628 6.90976L2.36276 6.90975C2.49235 6.09153 3.26898 5.42822 4.09741 5.42822L14.5974 5.42822Z" fill="#111111"/>
<path d="M13.8149 9.48145C13.6853 10.2997 12.9087 10.963 12.0803 10.963L1.58029 10.963C1.70988 10.1447 2.48651 9.48144 3.31494 9.48144L13.8149 9.48145Z" fill="#111111"/>
<path d="M5.65085 3.48153C5.78044 2.6633 6.55707 2 7.3855 2L5.74294 12.3707C5.61334 13.189 4.83671 13.8523 4.00828 13.8523L5.65085 3.48153Z" fill="#111111"/>
<path d="M10.3139 3.48153C10.4435 2.6633 11.2202 2 12.0486 2L10.406 12.3707C10.2764 13.189 9.4998 13.8523 8.67137 13.8523L10.3139 3.48153Z" fill="#111111"/>
</svg>
