<svg width="72" height="72" viewBox="0 0 72 72" fill="none" xmlns="http://www.w3.org/2000/svg">
<path fill-rule="evenodd" clip-rule="evenodd" d="M29.4558 52.2436C34.7517 52.7425 40.0387 51.2051 44.2411 47.9443L55.8867 59.5898C57.9303 57.5463 57.9303 54.233 55.8867 52.1895L47.9417 44.2445C51.2043 40.0415 52.7427 34.7531 52.2436 29.4558C51.7445 24.1581 49.2451 19.2498 45.2544 15.73C41.2637 12.2103 36.0816 10.3437 30.763 10.5103C25.4445 10.6769 20.3893 12.8641 16.6267 16.6267C12.8641 20.3893 10.6769 25.4445 10.5103 30.763C10.3437 36.0816 12.2103 41.2637 15.73 45.2544C19.2498 49.2451 24.1581 51.7445 29.4558 52.2436ZM47.1042 31.4158C47.1042 33.4761 46.6985 35.5161 45.91 37.4195C45.1216 39.3229 43.966 41.0524 42.5092 42.5092C41.0524 43.966 39.3229 45.1216 37.4195 45.91C35.5161 46.6985 33.4761 47.1043 31.4158 47.1043C29.3556 47.1043 27.3155 46.6985 25.4121 45.91C23.5087 45.1216 21.7792 43.966 20.3224 42.5092C18.8656 41.0524 17.71 39.3229 16.9216 37.4195C16.1332 35.5161 15.7274 33.4761 15.7274 31.4158C15.7274 27.255 17.3803 23.2646 20.3224 20.3224C23.2646 17.3803 27.255 15.7274 31.4158 15.7274C35.5767 15.7274 39.5671 17.3803 42.5092 20.3224C45.4514 23.2646 47.1042 27.255 47.1042 31.4158Z" fill="#F6F7F2"/>
<path d="M57.7012 54.004C57.7234 54.0254 57.7451 54.0472 57.7665 54.0693L57.7012 54.004Z" fill="#F6F7F2"/>
</svg>
