<svg width="32" height="32" viewBox="0 0 32 32" fill="none" xmlns="http://www.w3.org/2000/svg">
<path fill-rule="evenodd" clip-rule="evenodd" d="M13.0916 23.2194C15.4453 23.4412 17.795 22.7579 19.6628 21.3087L24.8386 26.4845C25.7469 25.5762 25.7469 24.1036 24.8386 23.1954L21.3075 19.6643C22.7576 17.7963 23.4413 15.4459 23.2194 13.0916C22.9976 10.737 21.8868 8.55554 20.1132 6.9912C18.3395 5.42687 16.0363 4.59727 13.6725 4.67131C11.3087 4.74535 9.06201 5.71746 7.38973 7.38973C5.71746 9.06201 4.74535 11.3087 4.67131 13.6725C4.59727 16.0363 5.42687 18.3395 6.9912 20.1132C8.55554 21.8868 10.737 22.9976 13.0916 23.2194ZM20.9353 13.9627C20.9353 14.8783 20.755 15.785 20.4045 16.631C20.0541 17.4769 19.5405 18.2456 18.8931 18.8931C18.2456 19.5405 17.4769 20.0541 16.631 20.4045C15.785 20.755 14.8783 20.9353 13.9627 20.9353C13.047 20.9353 12.1403 20.755 11.2944 20.4045C10.4484 20.0541 9.67975 19.5405 9.03228 18.8931C8.38481 18.2456 7.87121 17.4769 7.5208 16.631C7.1704 15.785 6.99004 14.8783 6.99004 13.9627C6.99004 12.1134 7.72466 10.3399 9.03228 9.03228C10.3399 7.72466 12.1134 6.99004 13.9627 6.99004C15.8119 6.99004 17.5854 7.72466 18.8931 9.03228C20.2007 10.3399 20.9353 12.1134 20.9353 13.9627Z" fill="#111111"/>
<path d="M25.6451 24.0019C25.6549 24.0114 25.6646 24.021 25.6741 24.0309L25.6451 24.0019Z" fill="#111111"/>
</svg>
