<svg width="16" height="16" viewBox="0 0 16 16" fill="none" xmlns="http://www.w3.org/2000/svg">
<path d="M3.70093 11.9998C3.76928 11.8782 3.85358 11.7666 3.95151 11.6682C4.10812 11.4705 4.2735 11.2855 4.43137 11.0827C4.5973 10.8712 4.80938 10.7019 5.05079 10.5883C5.29219 10.4747 5.55627 10.42 5.82208 10.4284C6.10117 10.4476 6.38149 10.4348 6.65776 10.3901C7.02817 10.3032 7.35937 10.0926 7.59869 9.79191C8.13326 9.13885 8.66992 8.48792 9.20866 7.83911C9.36319 7.64238 9.55972 7.48408 9.78332 7.37623C10.0069 7.26838 10.2517 7.21381 10.4991 7.21666C12.3121 7.21666 14.1325 7.21666 15.9392 7.21666H15.9981C16.0081 7.2664 15.973 7.28426 15.953 7.3085C15.7112 7.60314 15.4706 7.89906 15.2263 8.19115C15.0679 8.39127 14.8667 8.55202 14.6381 8.66119C14.4095 8.77037 14.1595 8.82511 13.907 8.82125C13.614 8.80318 13.32 8.81729 13.03 8.86334C12.6704 8.94033 12.3466 9.13796 12.1104 9.42457C11.6318 10.0011 11.1481 10.5725 10.6821 11.1605C10.3814 11.5432 10.0556 11.8646 9.57576 11.9998H3.70093Z" fill="#111111"/>
<path d="M12.3711 4.00001C12.0704 4.36225 11.796 4.71302 11.5016 5.04593C11.3463 5.22408 11.1551 5.36608 10.9411 5.46226C10.727 5.55845 10.4952 5.60656 10.2612 5.60332C9.95677 5.60332 9.65106 5.57526 9.35037 5.64797C9.00023 5.72831 8.68559 5.92319 8.45455 6.20281C7.91831 6.85162 7.38457 7.50086 6.85334 8.15052C6.69197 8.36242 6.48457 8.53338 6.24742 8.65001C6.01026 8.76663 5.74979 8.82575 5.48643 8.82271H0.109002C0.0814383 8.82271 0.0526217 8.82271 0 8.82271L0.135313 8.65307C0.358328 8.38266 0.581344 8.11098 0.805613 7.84057C0.961603 7.64893 1.15674 7.4942 1.37744 7.38715C1.59814 7.28009 1.83911 7.22328 2.08357 7.22067C2.35458 7.22663 2.62569 7.21598 2.89544 7.18878C3.30198 7.12707 3.67113 6.91277 3.93034 6.58802C4.47075 5.93496 5.00992 5.28104 5.54783 4.62628C5.69946 4.43045 5.89287 4.2723 6.1134 4.1638C6.33394 4.0553 6.57583 3.99929 6.82077 4.00001C8.64499 4.00001 10.4642 4.00001 12.2859 4.00001H12.3711Z" fill="#111111"/>
</svg>
