<svg width="16" height="16" viewBox="0 0 16 16" fill="none" xmlns="http://www.w3.org/2000/svg">
<path d="M8.72843 3.52243C9.02811 2.46807 9.96873 1.80745 10.8262 2.05026C11.2506 2.17276 11.5875 2.48994 11.7756 2.94712C11.9571 3.38681 11.9768 3.90524 11.8346 4.40617C11.5765 5.31397 10.8459 5.92865 10.1 5.92865C9.97967 5.92865 9.85717 5.91115 9.73686 5.87834C8.88155 5.63334 8.42875 4.57898 8.72843 3.52243ZM14.9124 7.18208C14.779 7.6502 14.5077 8.05269 14.1468 8.313C13.8799 8.50769 13.5846 8.60831 13.2937 8.60831C13.1756 8.60831 13.0596 8.59081 12.9459 8.558C12.5478 8.44644 12.2306 8.14675 12.0534 7.71801C11.885 7.30676 11.8653 6.82333 11.9987 6.35302C12.2787 5.36428 13.1603 4.74742 13.9652 4.97491C14.3634 5.08866 14.6806 5.38835 14.8577 5.81709C15.0262 6.22834 15.0459 6.71177 14.9124 7.18208ZM4.16535 4.40617C4.02317 3.90524 4.04286 3.38681 4.22442 2.94712C4.41254 2.48994 4.74941 2.17276 5.17378 2.05026C6.03127 1.80745 6.97189 2.46807 7.27157 3.52243C7.57126 4.57898 7.11845 5.63334 6.26314 5.87834C6.14283 5.91115 6.02033 5.92865 5.90002 5.92865C5.15409 5.92865 4.42348 5.31397 4.16535 4.40617ZM13.2171 11.1983C13.4009 12.1389 13.169 12.9745 12.5784 13.4908C12.1978 13.8254 11.7034 13.9961 11.1565 13.9961C10.8437 13.9961 10.5112 13.9392 10.1744 13.8254C9.51592 13.6045 8.80499 13.4951 8 13.4951C7.19501 13.4951 6.48408 13.6045 5.82565 13.8254C4.89816 14.1383 4.02098 14.0179 3.42161 13.4908C2.83099 12.9745 2.59912 12.1389 2.78287 11.1983C3.0913 9.63205 4.71879 8.12488 6.03127 7.13614C6.59564 6.73364 7.19282 6.5149 7.81844 6.4799V6.47333H8C8.00219 6.47333 8.00219 6.47333 8.00437 6.47333H8.0875C8.13781 6.47552 8.17719 6.47333 8.18375 6.47333V6.4799C8.83124 6.51708 9.44592 6.74239 9.96873 7.13614C11.2812 8.12488 12.9087 9.63205 13.2171 11.1983ZM3.05412 8.558C2.94037 8.59081 2.82443 8.60831 2.70631 8.60831C2.41537 8.60831 2.12006 8.50769 1.85319 8.313C1.49226 8.05269 1.22101 7.6502 1.08758 7.18208C0.954139 6.71177 0.973827 6.22834 1.14226 5.81709C1.31945 5.38835 1.63663 5.08866 2.03475 4.97491C2.83974 4.74742 3.7213 5.36428 4.00129 6.35302C4.13473 6.82333 4.11504 7.30676 3.94661 7.71801C3.76942 8.14675 3.45224 8.44644 3.05412 8.558Z" fill="#111111"/>
</svg>
