<svg width="16" height="16" viewBox="0 0 16 16" fill="none" xmlns="http://www.w3.org/2000/svg">
<path d="M11.5665 9.81141L10.3984 10.4695C10.2582 10.5484 10.096 10.5793 9.93663 10.5574C9.77725 10.5355 9.62941 10.4621 9.51569 10.3483L5.61687 6.44945C5.50317 6.33568 5.42978 6.18785 5.40789 6.0285C5.386 5.86914 5.41682 5.707 5.49565 5.56679L6.15374 4.39865C6.2722 4.18841 6.31857 3.94517 6.28579 3.70609C6.253 3.46701 6.14286 3.24524 5.97218 3.07465L4.22137 1.32384C4.11875 1.22117 3.99691 1.13973 3.86281 1.08417C3.72871 1.0286 3.58498 1 3.43982 1C3.29466 1 3.15092 1.0286 3.01682 1.08417C2.88272 1.13973 2.76088 1.22117 2.65827 1.32384L1.86331 2.11824C1.39844 2.5831 1.10233 3.19003 1.02206 3.84253C0.941787 4.49502 1.08196 5.15563 1.4203 5.7193L1.81918 6.38409C3.85614 9.77896 6.73126 12.5935 10.1688 14.5577L10.2475 14.6029C11.4218 15.2739 12.8726 15.0784 13.8128 14.1387L14.643 13.3086C14.7456 13.2059 14.8271 13.0841 14.8827 12.95C14.9382 12.8159 14.9668 12.6722 14.9668 12.527C14.9668 12.3818 14.9382 12.2381 14.8827 12.104C14.8271 11.9699 14.7456 11.8481 14.643 11.7455L12.8911 9.99352C12.7205 9.82263 12.4986 9.71229 12.2594 9.67941C12.0202 9.64652 11.7769 9.69288 11.5665 9.81141Z" fill="#111111"/>
</svg>
