<svg width="48" height="48" viewBox="0 0 48 48" fill="none" xmlns="http://www.w3.org/2000/svg">
<path d="M24.1002 3C15.7519 3 9 9.75193 9 18.1002C9 27.0955 18.5347 39.4992 22.4607 44.2234C23.3236 45.2589 24.8983 45.2589 25.7612 44.2234C29.6656 39.4992 39.2003 27.0955 39.2003 18.1002C39.2003 9.75193 32.4484 3 24.1002 3ZM24.1002 23.4931C21.1233 23.4931 18.7072 21.077 18.7072 18.1002C18.7072 15.1233 21.1233 12.7072 24.1002 12.7072C27.077 12.7072 29.4931 15.1233 29.4931 18.1002C29.4931 21.077 27.077 23.4931 24.1002 23.4931Z" fill="#F6F7F2"/>
</svg>
