<svg width="16" height="16" viewBox="0 0 16 16" fill="none" xmlns="http://www.w3.org/2000/svg">
<path d="M8.03338 1C5.25064 1 3 3.25064 3 6.03338C3 9.03184 6.17822 13.1664 7.4869 14.7411C7.77452 15.0863 8.29943 15.0863 8.58706 14.7411C9.88855 13.1664 13.0668 9.03184 13.0668 6.03338C13.0668 3.25064 10.8161 1 8.03338 1ZM8.03338 7.83102C7.04109 7.83102 6.23575 7.02568 6.23575 6.03338C6.23575 5.04109 7.04109 4.23575 8.03338 4.23575C9.02568 4.23575 9.83102 5.04109 9.83102 6.03338C9.83102 7.02568 9.02568 7.83102 8.03338 7.83102Z" fill="#111111"/>
</svg>
