<svg width="16" height="16" viewBox="0 0 16 16" fill="none" xmlns="http://www.w3.org/2000/svg">
<path d="M3.63839 11.75C3.63839 11.9224 3.70565 12.0877 3.82537 12.2096C3.9451 12.3315 4.10747 12.4 4.27679 12.4H5.55357V14.35C5.55357 14.5224 5.62083 14.6877 5.74055 14.8096C5.86027 14.9315 6.02265 15 6.19196 15H10.0223C10.1916 15 10.354 14.9315 10.4737 14.8096C10.5935 14.6877 10.6607 14.5224 10.6607 14.35V12.4H11.9375C12.1068 12.4 12.2692 12.3315 12.3889 12.2096C12.5086 12.0877 12.5759 11.9224 12.5759 11.75V7.2H13.2143V5.9H10.6607V2H9.38393V5.9H6.83036V2H5.55357V5.9H3V7.2H3.63839V11.75Z" fill="#111111"/>
</svg>
