<svg width="72" height="72" viewBox="0 0 72 72" fill="none" xmlns="http://www.w3.org/2000/svg">
<path d="M38.4023 39.719C38.4023 42.9002 35.8235 45.479 32.6423 45.479L32.6423 36.839L38.4023 36.839L38.4023 39.719Z" fill="#F6F7F2"/>
<circle cx="35.25" cy="51.75" r="3.75" fill="#F6F7F2"/>
<path fill-rule="evenodd" clip-rule="evenodd" d="M50.3977 23.8904C50.3977 32.1142 43.731 38.7809 35.5073 38.7809C34.5273 38.7809 33.5694 38.6862 32.6422 38.5055V32.8196C33.5456 33.1093 34.5086 33.2658 35.5082 33.2658C40.6861 33.2658 44.8836 29.0682 44.8836 23.8903C44.8836 18.7124 40.6861 14.5148 35.5082 14.5148C31.5184 14.5148 28.1107 17.007 26.7569 20.5195H21C22.5275 13.9195 28.4429 9 35.5073 9C43.731 9 50.3977 15.6667 50.3977 23.8904Z" fill="#F6F7F2"/>
</svg>
