<svg width="32" height="32" viewBox="0 0 32 32" fill="none" xmlns="http://www.w3.org/2000/svg">
<path d="M11.7309 22.3936C10.558 22.3936 9.609 23.3532 9.609 24.5261C9.609 25.699 10.558 26.6587 11.7309 26.6587C12.9038 26.6587 13.8634 25.699 13.8634 24.5261C13.8634 23.3532 12.9038 22.3936 11.7309 22.3936ZM5.33325 6.39952C5.33325 6.98597 5.81307 7.46579 6.39952 7.46579H7.46579L11.3044 15.5588L9.8649 18.1605C9.08652 19.5893 10.1101 21.3273 11.7309 21.3273H23.4599C24.0463 21.3273 24.5261 20.8475 24.5261 20.261C24.5261 19.6746 24.0463 19.1948 23.4599 19.1948H11.7309L12.9038 17.0622H20.8475C21.6472 17.0622 22.3509 16.6251 22.7135 15.964L26.5307 9.04387C26.9252 8.34014 26.4134 7.46579 25.6031 7.46579H9.82225L9.10785 5.94103C8.93725 5.56783 8.55339 5.33325 8.14821 5.33325H6.39952C5.81307 5.33325 5.33325 5.81307 5.33325 6.39952ZM22.3936 22.3936C21.2207 22.3936 20.2717 23.3532 20.2717 24.5261C20.2717 25.699 21.2207 26.6587 22.3936 26.6587C23.5665 26.6587 24.5261 25.699 24.5261 24.5261C24.5261 23.3532 23.5665 22.3936 22.3936 22.3936Z" fill="#111111"/>
</svg>
