<svg width="956" height="27" viewBox="0 0 956 27" fill="none" xmlns="http://www.w3.org/2000/svg">
<g clip-path="url(#clip0_4308_3592)">
<path d="M0 13.5C16.2 -0.5 32.4 -0.5 48.6 13.5C64.8 27.5 81 27.5 97.2 13.5C113.4 -0.5 129.6 -0.5 145.8 13.5C162 27.5 178.2 27.5 194.4 13.5C210.6 -0.5 226.8 -0.5 243 13.5C259.2 27.5 275.4 27.5 291.6 13.5C307.8 -0.5 324 -0.5 340.2 13.5C356.4 27.5 372.6 27.5 388.8 13.5C405 -0.5 421.2 -0.5 437.4 13.5C453.6 27.5 469.8 27.5 486 13.5" stroke="#CDD42A" stroke-width="4"/>
<path d="M486 13.5C502.2 -0.5 518.4 -0.5 534.6 13.5C550.8 27.5 567 27.5 583.2 13.5C599.4 -0.5 615.6 -0.5 631.8 13.5C648 27.5 664.2 27.5 680.4 13.5C696.6 -0.5 712.8 -0.5 729 13.5C745.2 27.5 761.4 27.5 777.6 13.5C793.8 -0.5 810 -0.5 826.2 13.5C842.4 27.5 858.6 27.5 874.8 13.5C891 -0.5 907.2 -0.5 923.4 13.5C939.6 27.5 955.8 27.5 972 13.5" stroke="#CDD42A" stroke-width="4"/>
</g>
<defs>
<clipPath id="clip0_4308_3592">
<rect width="956" height="27" fill="white"/>
</clipPath>
</defs>
</svg>
