<svg width="16" height="16" viewBox="0 0 16 16" fill="none" xmlns="http://www.w3.org/2000/svg">
<path d="M12.5744 6.77186C12.8787 7.06097 12.9091 7.53268 12.62 7.83701C12.4679 8.00439 12.27 8.08048 12.057 8.08048C11.8744 8.08048 11.6918 8.01961 11.5396 7.88266C8.16159 4.79371 4.52485 7.7305 4.37268 7.85223C4.05314 8.12612 3.56621 8.08047 3.30753 7.76093C3.03363 7.44138 3.07928 6.96967 3.39883 6.69577C5.05743 5.31107 9.07458 3.56118 12.5744 6.77186ZM8.03986 11.002C7.65945 11.002 7.27903 11.1542 7.02035 11.4281C6.74646 11.702 6.59429 12.0672 6.59429 12.4476C6.59429 12.828 6.74646 13.1932 7.02035 13.4671C7.29425 13.741 7.65945 13.8932 8.03986 13.8932C8.42027 13.8932 8.80068 13.741 9.05936 13.4671C9.33326 13.1932 9.48542 12.828 9.48542 12.4476C9.48542 12.0672 9.33326 11.702 9.05936 11.4281C8.78547 11.1542 8.42027 11.002 8.03986 11.002ZM14.7351 4.70241C11.1288 1.5526 7.64423 1.71998 5.34654 2.41994C2.89668 3.16555 1.29895 4.62633 1.23809 4.70241C0.933757 4.99153 0.91854 5.46324 1.20765 5.76757C1.49677 6.0719 1.98369 6.08712 2.28802 5.798C2.30324 5.78279 3.68794 4.5046 5.80303 3.86551C8.60287 3.01338 11.2658 3.68291 13.746 5.84365C13.883 5.96538 14.0656 6.02625 14.2482 6.02625C14.4612 6.02625 14.6742 5.93495 14.8264 5.76757C15.0851 5.46324 15.0547 4.97631 14.7351 4.70241ZM5.48349 8.85652C5.14872 9.1152 5.10308 9.58691 5.36176 9.92167C5.62044 10.2564 6.10736 10.3021 6.42691 10.0434C6.48778 9.99775 8.10072 8.75 9.47021 10.0282C9.62237 10.1651 9.80497 10.226 9.98757 10.226C10.1854 10.226 10.3984 10.1499 10.5506 9.98254C10.8397 9.67821 10.8245 9.19128 10.5049 8.91738C8.66373 7.21314 6.41169 8.14134 5.48349 8.85652Z" fill="#111111"/>
</svg>
