<svg width="215" height="215" viewBox="0 0 215 215" fill="none" xmlns="http://www.w3.org/2000/svg">
<path d="M104.557 12V3.27273H107.608C108.216 3.27273 108.717 3.37784 109.112 3.58807C109.507 3.79545 109.801 4.07528 109.994 4.42756C110.188 4.77699 110.284 5.16477 110.284 5.59091C110.284 5.96591 110.217 6.27557 110.084 6.51989C109.953 6.7642 109.78 6.95739 109.564 7.09943C109.351 7.24148 109.119 7.34659 108.869 7.41477V7.5C109.136 7.51705 109.405 7.6108 109.675 7.78125C109.945 7.9517 110.171 8.19602 110.352 8.5142C110.534 8.83239 110.625 9.22159 110.625 9.68182C110.625 10.1193 110.526 10.5128 110.327 10.8622C110.128 11.2116 109.814 11.4886 109.385 11.6932C108.956 11.8977 108.398 12 107.71 12H104.557ZM105.614 11.0625H107.71C108.401 11.0625 108.891 10.929 109.181 10.6619C109.473 10.392 109.619 10.0653 109.619 9.68182C109.619 9.38636 109.544 9.11364 109.394 8.86364C109.243 8.6108 109.029 8.40909 108.75 8.25852C108.472 8.10511 108.142 8.02841 107.761 8.02841H105.614V11.0625ZM105.614 7.10795H107.574C107.892 7.10795 108.179 7.04545 108.435 6.92045C108.693 6.79545 108.898 6.61932 109.048 6.39205C109.202 6.16477 109.279 5.89773 109.279 5.59091C109.279 5.20739 109.145 4.8821 108.878 4.61506C108.611 4.34517 108.188 4.21023 107.608 4.21023H105.614V7.10795Z" fill="#111111"/>
<path d="M126.07 11.0837L126.742 7.2732L127.733 7.44784L126.596 13.8939L125.606 13.7192L125.798 12.6281L125.731 12.6163C125.522 12.917 125.238 13.1539 124.879 13.3271C124.52 13.4974 124.097 13.5397 123.61 13.4539C123.207 13.3828 122.865 13.2316 122.582 13.0001C122.301 12.7658 122.102 12.4538 121.986 12.0641C121.87 11.6716 121.861 11.2012 121.958 10.6528L122.68 6.5569L123.67 6.73154L122.96 10.7603C122.877 11.2303 122.942 11.6284 123.156 11.9546C123.373 12.2812 123.686 12.4808 124.098 12.5533C124.344 12.5967 124.605 12.5779 124.882 12.4969C125.162 12.4164 125.411 12.2613 125.631 12.0317C125.853 11.8026 125.999 11.4866 126.07 11.0837Z" fill="#111111"/>
<path d="M137.508 19.4053C137.348 19.347 137.21 19.2817 137.094 19.2093C136.978 19.1396 136.9 19.084 136.86 19.0425L137.404 18.297C137.612 18.4393 137.807 18.5345 137.989 18.5826C138.171 18.6308 138.356 18.6088 138.544 18.5169C138.733 18.4286 138.942 18.2492 139.17 17.9786L139.521 17.5622L139.497 10.5516L140.522 10.9248L140.436 16.4441L140.5 16.4674L143.982 12.184L145.007 12.5571L139.831 18.6546C139.598 18.9295 139.357 19.1395 139.108 19.2845C138.857 19.4323 138.599 19.5151 138.332 19.533C138.069 19.5518 137.794 19.5093 137.508 19.4053Z" fill="#111111"/>
<path d="M174.583 27.7309L168.973 34.4164L168.164 33.7371L173.774 27.0516L174.583 27.7309Z" fill="#111111"/>
<path d="M186.486 42.8772L185.833 43.425L183.653 40.8266L184.306 40.2787L186.486 42.8772ZM186.142 40.0281L186.789 40.7985L182.01 44.8086C181.792 44.9912 181.655 45.1597 181.6 45.3141C181.548 45.4689 181.545 45.6118 181.592 45.743C181.643 45.8745 181.716 45.9968 181.811 46.11C181.882 46.1949 181.945 46.2609 182 46.308C182.056 46.3532 182.101 46.3895 182.135 46.4166L181.575 47.154C181.511 47.1182 181.431 47.0618 181.332 46.9846C181.232 46.9093 181.122 46.7998 181.001 46.6562C180.819 46.4386 180.686 46.186 180.605 45.8986C180.525 45.6133 180.523 45.3218 180.6 45.024C180.678 44.7283 180.863 44.4582 181.154 44.2135L186.142 40.0281Z" fill="#111111"/>
<path d="M206.46 74.6497L198.259 77.6346L197.909 76.6736L202.722 69.8611L202.693 69.781L196.254 72.1246L195.892 71.1315L204.093 68.1466L204.443 69.1077L199.62 75.942L199.649 76.0221L206.104 73.6726L206.46 74.6497Z" fill="#111111"/>
<path d="M201.342 90.5262C201.239 89.9442 201.288 89.4092 201.487 88.9211C201.687 88.4359 202.015 88.0262 202.469 87.6922C202.924 87.361 203.485 87.1367 204.151 87.0193C204.822 86.9009 205.43 86.9192 205.974 87.0743C206.518 87.2322 206.967 87.505 207.321 87.8926C207.675 88.283 207.904 88.7692 208.006 89.3511C208.109 89.933 208.06 90.4666 207.86 90.9519C207.661 91.44 207.332 91.8499 206.874 92.1816C206.417 92.5161 205.852 92.7426 205.181 92.861C204.515 92.9784 203.911 92.9579 203.37 92.7995C202.829 92.6439 202.381 92.3709 202.027 91.9805C201.673 91.5929 201.445 91.1081 201.342 90.5262ZM202.232 90.3693C202.31 90.8113 202.487 91.1551 202.764 91.4005C203.041 91.6459 203.376 91.8046 203.77 91.8766C204.163 91.9485 204.575 91.9465 205.006 91.8706C205.437 91.7946 205.826 91.6552 206.174 91.4525C206.522 91.2498 206.786 90.9856 206.965 90.6598C207.144 90.3339 207.195 89.95 207.117 89.508C207.039 89.0659 206.86 88.7224 206.58 88.4775C206.3 88.2326 205.962 88.0744 205.566 88.0029C205.17 87.9314 204.756 87.9337 204.325 88.0097C203.895 88.0856 203.507 88.2247 203.161 88.4269C202.816 88.6291 202.556 88.8929 202.379 89.2182C202.203 89.5436 202.154 89.9272 202.232 90.3693Z" fill="#111111"/>
<path d="M203 104.903L209.546 102.909V103.966L204.534 105.381V105.449L209.546 106.847V107.92L204.551 109.301V109.369L209.546 110.784V111.841L203 109.847V108.858L208.029 107.426V107.324L203 105.892V104.903Z" fill="#111111"/>
<path d="M210.101 125.845L203.938 124.672L204.11 123.698L210.302 124.703L210.101 125.845ZM201.539 123.747C201.576 123.54 201.681 123.375 201.856 123.253C202.03 123.131 202.221 123.088 202.428 123.125C202.635 123.161 202.8 123.267 202.922 123.441C203.044 123.615 203.087 123.806 203.05 124.013C203.014 124.22 202.908 124.385 202.734 124.507C202.559 124.629 202.369 124.672 202.162 124.635C202.024 124.611 201.905 124.554 201.802 124.464C201.699 124.376 201.623 124.269 201.573 124.142C201.526 124.018 201.515 123.887 201.539 123.747Z" fill="#111111"/>
<path d="M191.677 152.701L199.235 157.065L197.71 159.707C197.406 160.234 197.064 160.616 196.685 160.852C196.308 161.091 195.918 161.205 195.516 161.197C195.117 161.189 194.733 161.079 194.364 160.866C194.039 160.678 193.805 160.466 193.66 160.228C193.513 159.993 193.433 159.746 193.418 159.488C193.401 159.232 193.426 158.979 193.492 158.729L193.418 158.686C193.27 158.909 193.054 159.094 192.772 159.243C192.489 159.391 192.165 159.465 191.798 159.463C191.432 159.462 191.049 159.346 190.651 159.116C190.272 158.897 189.981 158.614 189.778 158.267C189.575 157.92 189.492 157.51 189.529 157.036C189.566 156.562 189.757 156.028 190.101 155.432L191.677 152.701ZM191.961 154.085L190.913 155.901C190.567 156.499 190.438 156.99 190.524 157.375C190.612 157.763 190.822 158.053 191.154 158.245C191.41 158.392 191.683 158.464 191.975 158.458C192.269 158.454 192.551 158.369 192.821 158.204C193.093 158.039 193.324 157.792 193.515 157.462L194.588 155.602L191.961 154.085ZM195.386 156.063L194.405 157.76C194.246 158.036 194.157 158.316 194.137 158.599C194.116 158.886 194.167 159.151 194.288 159.395C194.408 159.642 194.601 159.842 194.867 159.995C195.199 160.187 195.548 160.234 195.912 160.136C196.28 160.04 196.608 159.741 196.898 159.239L197.895 157.511L195.386 156.063Z" fill="#111111"/>
<path d="M181.714 171.79L184.678 174.277L184.032 175.047L179.018 170.84L179.664 170.07L180.513 170.782L180.557 170.73C180.401 170.398 180.337 170.034 180.367 169.636C180.399 169.24 180.574 168.853 180.892 168.474C181.155 168.161 181.457 167.94 181.799 167.811C182.142 167.684 182.512 167.668 182.907 167.762C183.305 167.859 183.717 168.086 184.144 168.444L187.33 171.117L186.683 171.887L183.549 169.258C183.184 168.951 182.806 168.809 182.417 168.831C182.026 168.855 181.696 169.027 181.428 169.347C181.267 169.538 181.153 169.774 181.084 170.054C181.014 170.337 181.024 170.63 181.113 170.935C181.2 171.242 181.401 171.527 181.714 171.79Z" fill="#111111"/>
<path d="M168.789 177.535C168.919 177.425 169.045 177.338 169.165 177.274C169.284 177.208 169.371 177.168 169.427 177.155L169.801 177.998C169.573 178.108 169.393 178.229 169.261 178.363C169.128 178.496 169.055 178.667 169.04 178.876C169.022 179.084 169.073 179.354 169.193 179.688L169.378 180.2L175.462 183.684L174.626 184.385L169.889 181.551L169.837 181.595L171.806 186.752L170.97 187.453L168.277 179.922C168.156 179.583 168.094 179.269 168.094 178.98C168.091 178.69 168.148 178.425 168.266 178.185C168.382 177.947 168.556 177.73 168.789 177.535Z" fill="#111111"/>
<path d="M143.041 205.48L140.056 197.279L141.049 196.917L144.034 205.118L143.041 205.48Z" fill="#111111"/>
<path d="M123.973 208.214L123.825 207.375L127.165 206.786L127.313 207.625L123.973 208.214ZM126.612 209.341L125.621 209.516L124.538 203.372C124.489 203.092 124.411 202.889 124.305 202.764C124.197 202.642 124.075 202.568 123.938 202.543C123.798 202.522 123.656 202.524 123.51 202.549C123.401 202.568 123.313 202.59 123.245 202.613C123.177 202.64 123.123 202.661 123.083 202.677L122.724 201.822C122.787 201.785 122.876 201.744 122.992 201.697C123.108 201.648 123.258 201.607 123.442 201.575C123.722 201.525 124.007 201.537 124.297 201.61C124.584 201.683 124.837 201.828 125.057 202.043C125.273 202.259 125.415 202.554 125.481 202.929L126.612 209.341Z" fill="#111111"/>
<path d="M86.4692 209.628L87.9847 201.033L88.9918 201.211L92.4854 208.785L92.5693 208.8L93.7592 202.052L94.8 202.235L93.2845 210.83L92.2773 210.652L88.7699 203.058L88.686 203.044L87.4932 209.809L86.4692 209.628Z" fill="#111111"/>
<path d="M75.279 197.256C75.8343 197.458 76.2734 197.768 76.5963 198.184C76.9166 198.6 77.1077 199.089 77.1697 199.649C77.229 200.209 77.143 200.807 76.9118 201.442C76.6786 202.083 76.3589 202.6 75.9527 202.993C75.5438 203.385 75.0831 203.638 74.5705 203.751C74.0551 203.862 73.5198 203.817 72.9646 203.615C72.4093 203.413 71.9715 203.104 71.6513 202.688C71.3283 202.271 71.1377 201.782 71.0794 201.219C71.0184 200.656 71.1045 200.054 71.3377 199.413C71.5689 198.778 71.8885 198.265 72.2964 197.876C72.7016 197.485 73.1618 197.234 73.6772 197.122C74.1898 197.009 74.7238 197.054 75.279 197.256ZM74.97 198.105C74.5483 197.951 74.1619 197.933 73.8109 198.05C73.4599 198.168 73.1548 198.378 72.8958 198.683C72.6367 198.988 72.4323 199.346 72.2827 199.757C72.1331 200.168 72.059 200.575 72.0606 200.978C72.0622 201.38 72.1593 201.741 72.3519 202.059C72.5445 202.377 72.8518 202.613 73.2735 202.766C73.6953 202.92 74.0822 202.936 74.4342 202.817C74.7862 202.697 75.0922 202.483 75.3522 202.176C75.6123 201.868 75.8171 201.509 75.9667 201.098C76.1164 200.687 76.1899 200.281 76.1873 199.881C76.1848 199.481 76.0867 199.124 75.8931 198.808C75.6995 198.493 75.3918 198.258 74.97 198.105Z" fill="#111111"/>
<path d="M61.9987 191.504L60.4531 198.169L59.5378 197.641L60.8183 192.594L60.7592 192.559L57.0431 196.201L56.1131 195.664L57.4146 190.648L57.3555 190.614L53.6331 194.232L52.7179 193.703L57.7177 189.032L58.5739 189.526L57.2997 194.597L57.3883 194.648L61.1425 191.009L61.9987 191.504Z" fill="#111111"/>
<path d="M40.3126 187.182L44.4099 182.432L45.1672 183.067L41.2005 187.927L40.3126 187.182ZM46.4101 180.817C46.5712 180.952 46.661 181.126 46.6795 181.338C46.6981 181.55 46.6398 181.737 46.5047 181.898C46.3695 182.059 46.1959 182.149 45.9838 182.167C45.7717 182.186 45.5851 182.128 45.424 181.992C45.263 181.857 45.1732 181.684 45.1546 181.472C45.1361 181.259 45.1944 181.073 45.3295 180.912C45.419 180.805 45.5283 180.73 45.6576 180.686C45.7847 180.641 45.9157 180.629 46.0506 180.649C46.1815 180.67 46.3013 180.726 46.4101 180.817Z" fill="#111111"/>
<path d="M26.2662 157.8L18.7082 162.163L17.1826 159.521C16.8787 158.994 16.719 158.508 16.7036 158.06C16.6858 157.615 16.7811 157.22 16.9896 156.877C17.1956 156.535 17.4831 156.257 17.8522 156.044C18.1769 155.857 18.4785 155.76 18.7568 155.753C19.0338 155.744 19.2877 155.798 19.5187 155.914C19.7482 156.027 19.955 156.175 20.1391 156.357L20.2129 156.315C20.0941 156.075 20.0411 155.796 20.0537 155.477C20.0664 155.158 20.1651 154.84 20.3497 154.523C20.5344 154.207 20.826 153.934 21.2245 153.704C21.6034 153.485 21.9939 153.374 22.3959 153.372C22.798 153.369 23.1948 153.503 23.5865 153.772C23.9781 154.041 24.3458 154.473 24.6895 155.069L26.2662 157.8ZM24.9259 157.353L23.8776 155.537C23.5325 154.94 23.1718 154.582 22.7956 154.465C22.4156 154.346 22.0595 154.383 21.7274 154.574C21.4715 154.722 21.273 154.924 21.1317 155.179C20.9881 155.436 20.9206 155.723 20.9294 156.039C20.9358 156.357 21.0341 156.681 21.2245 157.01L22.2983 158.87L24.9259 157.353ZM21.5012 159.33L20.5211 157.633C20.362 157.357 20.1644 157.14 19.9283 156.981C19.6908 156.82 19.436 156.731 19.1639 156.714C18.8903 156.695 18.6207 156.762 18.355 156.915C18.0229 157.107 17.8079 157.385 17.7102 157.75C17.61 158.116 17.7048 158.55 17.9945 159.052L18.9917 160.779L21.5012 159.33Z" fill="#111111"/>
<path d="M14.7161 139.627L11.0801 140.95L10.7362 140.005L16.8869 137.766L17.2308 138.711L16.1897 139.09L16.213 139.154C16.5778 139.185 16.9251 139.312 17.2547 139.537C17.5817 139.763 17.8298 140.108 17.9988 140.572C18.1388 140.957 18.179 141.329 18.1197 141.689C18.0577 142.05 17.8869 142.378 17.6074 142.674C17.3252 142.97 16.9225 143.213 16.3992 143.404L12.491 144.826L12.147 143.881L15.9912 142.482C16.4397 142.319 16.7517 142.063 16.9274 141.715C17.102 141.364 17.1179 140.993 16.9751 140.6C16.8896 140.365 16.7425 140.148 16.534 139.949C16.3245 139.747 16.0655 139.609 15.7569 139.533C15.4475 139.456 15.1005 139.487 14.7161 139.627Z" fill="#111111"/>
<path d="M16.2036 125.56C16.2332 125.728 16.2456 125.88 16.2408 126.016C16.2388 126.152 16.2297 126.248 16.2134 126.302L15.2961 126.205C15.3152 125.953 15.3001 125.737 15.2508 125.555C15.2014 125.373 15.09 125.224 14.9166 125.107C14.7454 124.988 14.4856 124.896 14.137 124.834L13.6009 124.738L7.54161 128.264L7.35217 127.19L12.1751 124.505L12.1633 124.438L6.71284 123.564L6.5234 122.49L14.3919 123.924C14.7466 123.988 15.049 124.092 15.2993 124.235C15.5524 124.378 15.7533 124.56 15.9021 124.782C16.0503 125.001 16.1508 125.261 16.2036 125.56Z" fill="#111111"/>
<path d="M4.87592 89.2895L13.4706 90.805L13.2871 91.8457L4.69241 90.3303L4.87592 89.2895Z" fill="#111111"/>
<path d="M12.0419 71.4077L12.8428 71.6992L11.6827 74.8867L10.8818 74.5952L12.0419 71.4077ZM9.74631 73.1299L10.0903 72.1848L15.9527 74.3186C16.2196 74.4157 16.4339 74.4499 16.5956 74.4211C16.7556 74.3886 16.8806 74.3192 16.9706 74.2129C17.059 74.103 17.1285 73.9786 17.179 73.8398C17.2169 73.7357 17.2427 73.6483 17.2563 73.5777C17.2672 73.5061 17.276 73.4488 17.2825 73.4059L18.2014 73.5226C18.2021 73.5955 18.1936 73.6936 18.1758 73.8172C18.1608 73.9417 18.1212 74.092 18.057 74.2682C17.9599 74.5352 17.8072 74.7759 17.5992 74.9904C17.3921 75.2022 17.1405 75.3495 16.8443 75.4322C16.5492 75.5122 16.2227 75.4871 15.865 75.3569L9.74631 73.1299Z" fill="#111111"/>
<path d="M29.571 38.2232L36.2565 43.833L35.5991 44.6164L27.2931 43.8549L27.2383 43.9202L32.4874 48.3248L31.8081 49.1344L25.1226 43.5246L25.78 42.7411L34.1101 43.5005L34.1649 43.4352L28.9027 39.0197L29.571 38.2232Z" fill="#111111"/>
<path d="M45.8794 34.7168C45.4267 35.0966 44.9392 35.3222 44.4167 35.3934C43.8964 35.4629 43.378 35.3842 42.8614 35.1575C42.3471 34.929 41.8726 34.5558 41.4379 34.0379C40.9997 33.5156 40.7118 32.9802 40.5742 32.4318C40.4389 31.8815 40.4506 31.3562 40.6093 30.8559C40.7702 30.3538 41.0769 29.9128 41.5296 29.533C41.9823 29.1531 42.4687 28.9285 42.989 28.8591C43.5115 28.7878 44.0308 28.8675 44.547 29.0982C45.0654 29.3271 45.5437 29.7027 45.982 30.225C46.4166 30.7429 46.7007 31.2759 46.8342 31.824C46.9699 32.3702 46.9573 32.8944 46.7964 33.3966C46.6377 33.8969 46.332 34.337 45.8794 34.7168ZM45.2987 34.0248C45.6425 33.7362 45.8515 33.4107 45.9255 33.0482C45.9996 32.6856 45.9694 32.316 45.835 31.9392C45.7006 31.5625 45.4928 31.2065 45.2116 30.8714C44.9304 30.5363 44.615 30.2687 44.2655 30.0687C43.916 29.8688 43.5554 29.7727 43.1837 29.7805C42.8119 29.7883 42.4542 29.9365 42.1103 30.225C41.7665 30.5135 41.5584 30.8401 41.4862 31.2049C41.4139 31.5696 41.4459 31.9414 41.5822 32.3203C41.7184 32.6992 41.9271 33.0563 42.2083 33.3914C42.4896 33.7266 42.804 33.993 43.1517 34.1908C43.4994 34.3886 43.8582 34.4825 44.2281 34.4725C44.598 34.4625 44.9548 34.3133 45.2987 34.0248Z" fill="#111111"/>
<path d="M57.5013 26.0929L52.5015 21.4216L53.4167 20.8932L57.1476 24.5257L57.2067 24.4917L55.9115 19.4528L56.8414 18.9159L60.5343 22.5508L60.5934 22.5167L59.3214 17.4841L60.2367 16.9557L61.7823 23.6214L60.9261 24.1157L57.1719 20.4769L57.0833 20.528L58.3575 25.5986L57.5013 26.0929Z" fill="#111111"/>
<path d="M72.0869 9.4728L74.1522 15.3964L73.2232 15.7345L70.9977 9.86924L72.0869 9.4728ZM74.5505 17.936C74.353 18.0079 74.1577 17.9989 73.9647 17.9089C73.7718 17.8189 73.6393 17.6752 73.5674 17.4776C73.4955 17.2801 73.5046 17.0848 73.5945 16.8918C73.6845 16.6988 73.8283 16.5664 74.0259 16.4945C74.2234 16.4226 74.4187 16.4316 74.6117 16.5216C74.8046 16.6116 74.9371 16.7554 75.009 16.9529C75.0566 17.0837 75.067 17.216 75.0401 17.3497C75.0158 17.4825 74.9611 17.6022 74.876 17.7088C74.7925 17.8117 74.684 17.8875 74.5505 17.936Z" fill="#111111"/>
</svg>
