<svg width="1440" height="538" viewBox="0 0 1440 538" fill="none" xmlns="http://www.w3.org/2000/svg">
<path d="M-240 45C-176 18.3333 -112 18.3333 -48 45C16 71.6667 80 71.6667 144 45C208 18.3333 272 18.3333 336 45C400 71.6667 464 71.6667 528 45C592 18.3333 656 18.3333 720 45C784 71.6667 848 71.6667 912 45C976 18.3333 1040 18.3333 1104 45C1168 71.6667 1232 71.6667 1296 45C1360 18.3333 1424 18.3333 1488 45C1552 71.6667 1616 71.6667 1680 45" stroke="#CDD42A" stroke-width="50"/>
<path d="M-240 109C-176 82.3333 -112 82.3333 -48 109C16 135.667 80 135.667 144 109C208 82.3333 272 82.3333 336 109C400 135.667 464 135.667 528 109C592 82.3333 656 82.3333 720 109C784 135.667 848 135.667 912 109C976 82.3333 1040 82.3333 1104 109C1168 135.667 1232 135.667 1296 109C1360 82.3333 1424 82.3333 1488 109C1552 135.667 1616 135.667 1680 109" stroke="#CDD42A" stroke-width="50"/>
<path d="M-240 173C-176 146.333 -112 146.333 -48 173C16 199.667 80 199.667 144 173C208 146.333 272 146.333 336 173C400 199.667 464 199.667 528 173C592 146.333 656 146.333 720 173C784 199.667 848 199.667 912 173C976 146.333 1040 146.333 1104 173C1168 199.667 1232 199.667 1296 173C1360 146.333 1424 146.333 1488 173C1552 199.667 1616 199.667 1680 173" stroke="#CDD42A" stroke-width="50"/>
<path d="M-240 237C-176 210.333 -112 210.333 -48 237C16 263.667 80 263.667 144 237C208 210.333 272 210.333 336 237C400 263.667 464 263.667 528 237C592 210.333 656 210.333 720 237C784 263.667 848 263.667 912 237C976 210.333 1040 210.333 1104 237C1168 263.667 1232 263.667 1296 237C1360 210.333 1424 210.333 1488 237C1552 263.667 1616 263.667 1680 237" stroke="#CDD42A" stroke-width="50"/>
<path d="M-240 301C-176 274.333 -112 274.333 -48 301C16 327.667 80 327.667 144 301C208 274.333 272 274.333 336 301C400 327.667 464 327.667 528 301C592 274.333 656 274.333 720 301C784 327.667 848 327.667 912 301C976 274.333 1040 274.333 1104 301C1168 327.667 1232 327.667 1296 301C1360 274.333 1424 274.333 1488 301C1552 327.667 1616 327.667 1680 301" stroke="#CDD42A" stroke-width="50"/>
<path d="M-240 365C-176 338.333 -112 338.333 -48 365C16 391.667 80 391.667 144 365C208 338.333 272 338.333 336 365C400 391.667 464 391.667 528 365C592 338.333 656 338.333 720 365C784 391.667 848 391.667 912 365C976 338.333 1040 338.333 1104 365C1168 391.667 1232 391.667 1296 365C1360 338.333 1424 338.333 1488 365C1552 391.667 1616 391.667 1680 365" stroke="#CDD42A" stroke-width="50"/>
<path d="M-240 429C-176 402.333 -112 402.333 -48 429C16 455.667 80 455.667 144 429C208 402.333 272 402.333 336 429C400 455.667 464 455.667 528 429C592 402.333 656 402.333 720 429C784 455.667 848 455.667 912 429C976 402.333 1040 402.333 1104 429C1168 455.667 1232 455.667 1296 429C1360 402.333 1424 402.333 1488 429C1552 455.667 1616 455.667 1680 429" stroke="#CDD42A" stroke-width="50"/>
<path d="M-240 493C-176 466.333 -112 466.333 -48 493C16 519.667 80 519.667 144 493C208 466.333 272 466.333 336 493C400 519.667 464 519.667 528 493C592 466.333 656 466.333 720 493C784 519.667 848 519.667 912 493C976 466.333 1040 466.333 1104 493C1168 519.667 1232 519.667 1296 493C1360 466.333 1424 466.333 1488 493C1552 519.667 1616 519.667 1680 493" stroke="#CDD42A" stroke-width="50"/>
</svg>
