<svg width="478" height="27" viewBox="0 0 478 27" fill="none" xmlns="http://www.w3.org/2000/svg">
<g clip-path="url(#clip0_4024_65895)">
<path d="M0 13.5C16.2 -0.5 32.4 -0.5 48.6 13.5C64.8 27.5 81 27.5 97.2 13.5C113.4 -0.5 129.6 -0.5 145.8 13.5C162 27.5 178.2 27.5 194.4 13.5C210.6 -0.5 226.8 -0.5 243 13.5C259.2 27.5 275.4 27.5 291.6 13.5C307.8 -0.5 324 -0.5 340.2 13.5C356.4 27.5 372.6 27.5 388.8 13.5C405 -0.5 421.2 -0.5 437.4 13.5C453.6 27.5 469.8 27.5 486 13.5" stroke="#CDD42A" stroke-width="4"/>
</g>
<defs>
<clipPath id="clip0_4024_65895">
<rect width="478" height="27" fill="white"/>
</clipPath>
</defs>
</svg>
