<svg width="400" height="14" viewBox="0 0 400 14" fill="none" xmlns="http://www.w3.org/2000/svg">
<g clip-path="url(#clip0_6074_2455)">
<path d="M1 7C11.6667 -1 22.3333 -1 33 7C43.6667 15 54.3333 15 65 7C75.6667 -1 86.3333 -1 97 7C107.667 15 118.333 15 129 7C139.667 -1 150.333 -1 161 7C171.667 15 182.333 15 193 7C203.667 -1 214.333 -1 225 7C235.667 15 246.333 15 257 7C267.667 -1 278.333 -1 289 7C299.667 15 310.333 15 321 7" stroke="#CDD42A" stroke-width="2"/>
<path d="M321 7C331.667 -1 342.333 -1 353 7C363.667 15 374.333 15 385 7C395.667 -1 406.333 -1 417 7C427.667 15 438.333 15 449 7C459.667 -1 470.333 -1 481 7C491.667 15 502.333 15 513 7C523.667 -1 534.333 -1 545 7C555.667 15 566.333 15 577 7C587.667 -1 598.333 -1 609 7C619.667 15 630.333 15 641 7" stroke="#CDD42A" stroke-width="2"/>
</g>
<defs>
<clipPath id="clip0_6074_2455">
<rect width="400" height="14" fill="white"/>
</clipPath>
</defs>
</svg>
