<svg width="48" height="48" viewBox="0 0 48 48" fill="none" xmlns="http://www.w3.org/2000/svg">
<path fill-rule="evenodd" clip-rule="evenodd" d="M31.9342 10.404C26.9283 7.51379 20.5273 9.22894 17.6371 14.2349L12.404 23.2989C9.51379 28.3048 11.2289 34.7059 16.2349 37.596C21.2408 40.4862 27.6418 38.7711 30.532 33.7651L35.7651 24.7011C38.6553 19.6952 36.9401 13.2941 31.9342 10.404ZM20.4173 33.4044C21.8666 32.6078 23.1084 31.4897 24.0473 30.1359C24.2146 29.895 24.3718 29.6473 24.5163 29.3883C25.5148 27.6658 26.0072 25.6954 25.9385 23.6976C25.9399 23.6934 25.9373 23.6839 25.9373 23.6839C25.9281 23.5582 25.9217 23.4311 25.9183 23.3057C25.9128 23.0686 25.9145 22.8277 25.9287 22.588C26.0238 20.7236 26.7237 18.9472 27.924 17.5236C29.1243 16.1 30.7607 15.1054 32.5895 14.688L33.0227 14.1736C31.3447 14.2372 29.7091 14.6855 28.2438 15.4834C26.7785 16.2813 25.5233 17.4073 24.5762 18.7732C24.4089 19.0141 24.2506 19.2621 24.1014 19.5204C23.1008 21.2468 22.6084 23.2221 22.6797 25.2243C22.6793 25.232 22.68 25.2397 22.6815 25.2473C22.6893 25.3563 22.6954 25.4664 22.6992 25.577C22.7096 25.8611 22.7055 26.1451 22.687 26.429C22.5697 28.2544 21.8729 29.9887 20.6965 31.3837C19.5201 32.7787 17.9245 33.7626 16.1382 34.1947L15.6874 34.7307C17.35 34.6546 18.9681 34.2009 20.4173 33.4044Z" fill="#111111"/>
</svg>
