<svg width="32" height="32" viewBox="0 0 32 32" fill="none" xmlns="http://www.w3.org/2000/svg">
<g clip-path="url(#clip0_4128_3501)">
<rect width="32" height="32" rx="16" fill="black"/>
<g clip-path="url(#clip1_4128_3501)">
<path d="M22 10.75C22.1989 10.75 22.3897 10.829 22.5303 10.9697C22.671 11.1103 22.75 11.3011 22.75 11.5C22.75 11.6989 22.671 11.8897 22.5303 12.0303C22.3897 12.171 22.1989 12.25 22 12.25H21.25L21.2477 12.3033L20.548 22.1065C20.5211 22.4849 20.3517 22.8391 20.0741 23.0977C19.7965 23.3563 19.4311 23.5 19.0518 23.5H12.9475C12.5681 23.5 12.2028 23.3563 11.9252 23.0977C11.6475 22.8391 11.4782 22.4849 11.4513 22.1065L10.7515 12.304C10.7504 12.286 10.7499 12.268 10.75 12.25H10C9.80109 12.25 9.61032 12.171 9.46967 12.0303C9.32902 11.8897 9.25 11.6989 9.25 11.5C9.25 11.3011 9.32902 11.1103 9.46967 10.9697C9.61032 10.829 9.80109 10.75 10 10.75H22ZM17.5 8.5C17.6989 8.5 17.8897 8.57902 18.0303 8.71967C18.171 8.86032 18.25 9.05109 18.25 9.25C18.25 9.44891 18.171 9.63968 18.0303 9.78033C17.8897 9.92098 17.6989 10 17.5 10H14.5C14.3011 10 14.1103 9.92098 13.9697 9.78033C13.829 9.63968 13.75 9.44891 13.75 9.25C13.75 9.05109 13.829 8.86032 13.9697 8.71967C14.1103 8.57902 14.3011 8.5 14.5 8.5H17.5Z" fill="white"/>
</g>
</g>
<defs>
<clipPath id="clip0_4128_3501">
<rect width="32" height="32" rx="16" fill="white"/>
</clipPath>
<clipPath id="clip1_4128_3501">
<rect width="18" height="18" fill="white" transform="translate(7 7)"/>
</clipPath>
</defs>
</svg>
