<svg width="48" height="48" viewBox="0 0 48 48" fill="none" xmlns="http://www.w3.org/2000/svg">
<g clip-path="url(#clip0_4128_3547)">
<rect width="48" height="48" rx="24" fill="#111111"/>
<g clip-path="url(#clip1_4128_3547)">
<path d="M19.9978 29.9941C18.8982 29.9941 18.0085 30.8937 18.0085 31.9933C18.0085 33.0929 18.8982 33.9926 19.9978 33.9926C21.0974 33.9926 21.997 33.0929 21.997 31.9933C21.997 30.8937 21.0974 29.9941 19.9978 29.9941ZM14 14.9996C14 15.5494 14.4498 15.9993 14.9996 15.9993H15.9993L19.5979 23.5864L18.2484 26.0255C17.5187 27.365 18.4783 28.9944 19.9978 28.9944H30.9937C31.5435 28.9944 31.9933 28.5446 31.9933 27.9948C31.9933 27.445 31.5435 26.9952 30.9937 26.9952H19.9978L21.0974 24.9959H28.5446C29.2943 24.9959 29.9541 24.5861 30.2939 23.9663L33.8726 17.4787C34.2425 16.819 33.7627 15.9993 33.0029 15.9993H18.2084L17.5387 14.5698C17.3787 14.2199 17.0189 14 16.639 14H14.9996C14.4498 14 14 14.4498 14 14.9996ZM29.9941 29.9941C28.8945 29.9941 28.0048 30.8937 28.0048 31.9933C28.0048 33.0929 28.8945 33.9926 29.9941 33.9926C31.0937 33.9926 31.9933 33.0929 31.9933 31.9933C31.9933 30.8937 31.0937 29.9941 29.9941 29.9941Z" fill="white"/>
</g>
</g>
<defs>
<clipPath id="clip0_4128_3547">
<rect width="48" height="48" rx="24" fill="white"/>
</clipPath>
<clipPath id="clip1_4128_3547">
<rect width="20" height="20" fill="white" transform="translate(14 14)"/>
</clipPath>
</defs>
</svg>
