<svg width="32" height="32" viewBox="0 0 32 32" fill="none" xmlns="http://www.w3.org/2000/svg">
<g clip-path="url(#clip0_4128_3373)">
<rect width="32" height="32" rx="16" fill="#111111"/>
<g clip-path="url(#clip1_4128_3373)">
<path d="M12.7982 20.7952C11.9185 20.7952 11.2068 21.515 11.2068 22.3947C11.2068 23.2743 11.9185 23.9941 12.7982 23.9941C13.6779 23.9941 14.3976 23.2743 14.3976 22.3947C14.3976 21.515 13.6779 20.7952 12.7982 20.7952ZM8 8.7997C8 9.23954 8.35987 9.59941 8.7997 9.59941H9.59941L12.4783 15.6692L11.3987 17.6204C10.815 18.692 11.5827 19.9955 12.7982 19.9955H21.595C22.0348 19.9955 22.3947 19.6357 22.3947 19.1958C22.3947 18.756 22.0348 18.3961 21.595 18.3961H12.7982L13.6779 16.7967H19.6357C20.2355 16.7967 20.7633 16.4689 21.0352 15.973L23.8981 10.783C24.194 10.2552 23.8101 9.59941 23.2024 9.59941H11.3667L10.8309 8.45583C10.703 8.17593 10.4151 8 10.1112 8H8.7997C8.35987 8 8 8.35987 8 8.7997ZM20.7952 20.7952C19.9156 20.7952 19.2038 21.515 19.2038 22.3947C19.2038 23.2743 19.9156 23.9941 20.7952 23.9941C21.6749 23.9941 22.3947 23.2743 22.3947 22.3947C22.3947 21.515 21.6749 20.7952 20.7952 20.7952Z" fill="white"/>
</g>
</g>
<defs>
<clipPath id="clip0_4128_3373">
<rect width="32" height="32" rx="16" fill="white"/>
</clipPath>
<clipPath id="clip1_4128_3373">
<rect width="16" height="16" fill="white" transform="translate(8 8)"/>
</clipPath>
</defs>
</svg>
